<svg width="37" height="39" viewBox="0 0 37 39" fill="none" xmlns="http://www.w3.org/2000/svg">
<g clip-path="url(#clip0_7186_21650)">
<path d="M19.3138 39L17.9672 38.9935C17.9672 38.9935 14.3693 25.4616 12.7172 20.5673C11.5113 16.9955 10.2581 13.428 8.25591 10.2203C6.25395 7.01268 3.44655 4.15752 0 2.52049C2.1931 1.01453 8.92876 -0.314827 12.3659 6.4866C14.6707 11.0473 16.9251 30.4019 16.9251 30.4019C16.9251 30.4019 17.3372 30.4041 17.3365 30.3853C17.1479 25.465 17.0193 11.0463 20.0821 5.69376C22.4327 1.58613 25.7521 -0.0153002 30.4701 0.000110061C32.9615 0.00825803 34.8249 0.755392 37 1.82809C32.0172 5.48936 29.3582 10.0419 26.0378 18.0507C21.7299 28.4417 19.3138 39 19.3138 39Z" fill="#005F71"/>
</g>
<defs>
<clipPath id="clip0_7186_21650">
<rect width="37" height="39" fill="white"/>
</clipPath>
</defs>
</svg>
