<svg width="184" height="74" viewBox="0 0 184 74" fill="none" xmlns="http://www.w3.org/2000/svg">
<rect width="184" height="74" fill="white"/>
<path d="M1 22.4478L5.81154 52.2571H9.17517L6.19248 22.4478H1Z" fill="#005F71"/>
<path d="M9.17578 52.2571H12.5394L17.381 22.4482H12.189L9.17578 52.2571Z" fill="#005F71"/>
<path d="M25.8561 22.4478L27.4625 38.5028C27.3921 38.4612 27.3489 38.4389 27.3489 38.4389C27.3489 38.4389 25.6412 39.3166 24.0323 40.4891L25.8561 22.4478H22.4924L17.6504 52.2567H22.8429L23.3908 46.8372C23.6306 45.9649 24.9654 41.511 27.4303 40.7552C27.5192 40.7282 27.6019 40.6997 27.6794 40.6711L28.8388 52.2567H34.0312L29.2197 22.4478H25.8561Z" fill="#005F71"/>
<path d="M43.1377 22.4478H38.0918V52.2571H39.6626H49.3208V50.7181V49.8567H43.1377V22.4478Z" fill="#005F71"/>
<path d="M126.31 22.4482H121.264V52.2571H126.31V22.4482Z" fill="#005F71"/>
<path d="M112.487 37.1239H105.286V22.4478H100.24V52.2575H105.286V39.5243H112.487V52.2575H117.532V22.4478H112.487V37.1239Z" fill="#005F71"/>
<path d="M73.1369 22.4478H69.227H67.6562V24.4172V50.2872V52.2571H69.227H78.8853V50.7181V49.8567H72.7025V39.5243H78.1005V37.1239H72.7025V36.8574V24.8481H78.8853V22.4478H73.1369Z" fill="#005F71"/>
<path d="M92.3028 22.1818C91.066 21.6769 89.8647 21.4209 88.7362 21.4209C87.7642 21.4209 86.8252 21.6117 85.9451 21.9876C83.5005 23.0318 82.209 25.6907 82.209 29.6771V38.9977V40.5543V44.2331C82.209 48.2195 83.501 50.8788 85.9451 51.9222C86.8252 52.2988 87.7646 52.4893 88.7362 52.4893C89.8647 52.4893 91.066 52.2332 92.3028 51.7284C94.5046 50.83 95.9097 48.6605 95.9097 46.2984V43.964H91.0643L91.096 48.8816C91.099 49.3448 90.8863 49.7963 90.4973 50.0532C90.1045 50.3117 89.6197 50.4559 89.1621 50.4559C88.3998 50.4559 87.7239 50.0616 87.3536 49.4007L87.301 49.1998L87.3049 42.85L87.3574 40.189L87.3654 39.8086L87.3714 39.8082L87.3697 39.5908L87.3714 39.5017L87.368 39.3575L87.3053 31.0618L87.3015 25.1929C87.3015 25.1929 87.5642 23.9406 89.0515 23.9406C90.9185 23.9406 91.0647 25.2636 91.0647 25.2636V29.9457H95.9101V27.6114C95.9097 25.2497 94.505 23.0801 92.3028 22.1818Z" fill="#005F71"/>
<path d="M155.648 35.6093C155.625 35.6114 155.6 35.6123 155.575 35.6131L155.548 35.6139L155.087 35.6421V35.1843V24.719V24.2882H155.521H155.892C158.37 24.2882 159.626 26.1811 159.626 29.9149C159.626 34.6303 157.714 35.4387 155.648 35.6093ZM164.465 29.5685C164.465 22.9173 160.231 22.4713 159.926 22.4478H155.521H150.445H150.041V52.2575H155.087V38.1446V37.7217L155.513 37.7133L155.889 37.7062C155.945 37.7049 156 37.7045 156.054 37.7045C157.347 37.7045 158.348 38.0488 159.031 38.7289C159.901 39.5949 159.907 40.6828 159.907 40.7287V52.1499H163.967V39.798C163.967 37.9327 162.98 36.7754 161.034 36.358L159.759 36.0848L160.945 35.5454C163.281 34.4823 164.465 32.4712 164.465 29.5685Z" fill="#005F71"/>
<path d="M64.1034 49.8568H57.958V22.4482H52.9121V52.2571H54.4452H64.1034H64.1412V50.7186H64.1034V49.8568Z" fill="#005F71"/>
<path d="M138.19 22.4478L139.796 38.5028C139.726 38.4612 139.683 38.4389 139.683 38.4389C139.683 38.4389 137.975 39.3166 136.366 40.4891L138.19 22.4478H134.826L129.984 52.2567H135.177L135.725 46.8372C135.964 45.9653 137.299 41.511 139.764 40.7552C139.853 40.7282 139.935 40.6997 140.013 40.6711L141.172 52.2567H146.365L141.554 22.4478H138.19Z" fill="#005F71"/>
<path d="M178.209 22.2194H174.845L176.669 40.2607C175.06 39.0883 173.353 38.2101 173.353 38.2101C173.353 38.2101 173.309 38.2332 173.239 38.274L174.845 22.219H171.481L166.67 52.0283H171.862L173.021 40.4427C173.099 40.4713 173.181 40.4995 173.27 40.5268C175.735 41.2826 177.07 45.7361 177.31 46.6088L177.858 52.0283H183.05L178.209 22.2194Z" fill="#005F71"/>
<path d="M45.11 1.3H47.255C47.1743 1.3 47.112 1.31833 47.068 1.355C47.024 1.38433 46.991 1.42833 46.969 1.487C46.947 1.53833 46.9323 1.597 46.925 1.663C46.925 1.72167 46.925 1.784 46.925 1.85V8.45C46.925 8.516 46.925 8.582 46.925 8.648C46.9323 8.714 46.947 8.77267 46.969 8.824C46.991 8.87533 47.024 8.91933 47.068 8.956C47.112 8.98533 47.1743 9 47.255 9H45.11C45.2787 9 45.374 8.94867 45.396 8.846C45.4253 8.74333 45.44 8.61133 45.44 8.45V1.85C45.44 1.784 45.4363 1.72167 45.429 1.663C45.429 1.597 45.418 1.53833 45.396 1.487C45.374 1.42833 45.341 1.38433 45.297 1.355C45.253 1.31833 45.1907 1.3 45.11 1.3ZM52.6103 2.983C52.5443 2.79967 52.4379 2.653 52.2913 2.543C52.1519 2.433 51.9943 2.34867 51.8183 2.29C51.6496 2.23133 51.4699 2.19467 51.2793 2.18C51.0959 2.158 50.9273 2.13967 50.7733 2.125V8.45C50.7733 8.516 50.7733 8.582 50.7733 8.648C50.7806 8.714 50.7953 8.77267 50.8173 8.824C50.8393 8.87533 50.8723 8.91933 50.9163 8.956C50.9603 8.98533 51.0226 9 51.1033 9H48.9583C49.1269 9 49.2223 8.94867 49.2443 8.846C49.2736 8.74333 49.2883 8.61133 49.2883 8.45V2.125C49.1343 2.13967 48.9656 2.158 48.7823 2.18C48.5989 2.202 48.4229 2.24233 48.2543 2.301C48.0856 2.35967 47.9279 2.444 47.7813 2.554C47.6419 2.65667 47.5393 2.79967 47.4733 2.983L47.6273 1.3H52.4673L52.6103 2.983ZM54.9015 9C54.9822 9 55.0409 8.98533 55.0775 8.956C55.1142 8.91933 55.1362 8.87533 55.1435 8.824C55.1582 8.77267 55.1582 8.714 55.1435 8.648C55.1362 8.582 55.1289 8.516 55.1215 8.45C55.0775 8.23 55.0299 7.99533 54.9785 7.746C54.9345 7.49667 54.8869 7.24 54.8355 6.976H53.2295C53.1782 7.24 53.1269 7.49667 53.0755 7.746C53.0315 7.99533 52.9875 8.23 52.9435 8.45C52.9289 8.53067 52.9179 8.604 52.9105 8.67C52.9032 8.736 52.9032 8.79467 52.9105 8.846C52.9252 8.89733 52.9509 8.93767 52.9875 8.967C53.0315 8.989 53.0939 9 53.1745 9H51.9205C52.0892 9 52.1955 8.94133 52.2395 8.824C52.2909 8.70667 52.3312 8.582 52.3605 8.45C52.4485 7.988 52.5475 7.471 52.6575 6.899C52.7675 6.327 52.8812 5.744 52.9985 5.15C53.1159 4.556 53.2295 3.973 53.3395 3.401C53.4569 2.829 53.5595 2.312 53.6475 1.85C53.6622 1.784 53.6732 1.718 53.6805 1.652C53.6879 1.586 53.6842 1.52733 53.6695 1.476C53.6622 1.42467 53.6365 1.38433 53.5925 1.355C53.5485 1.31833 53.4825 1.3 53.3945 1.3H55.5395C55.4589 1.3 55.3965 1.31833 55.3525 1.355C55.3159 1.38433 55.2902 1.42833 55.2755 1.487C55.2682 1.53833 55.2682 1.597 55.2755 1.663C55.2902 1.72167 55.3049 1.784 55.3195 1.85C55.4075 2.312 55.5065 2.829 55.6165 3.401C55.7265 3.973 55.8402 4.556 55.9575 5.15C56.0749 5.744 56.1885 6.327 56.2985 6.899C56.4159 7.471 56.5185 7.988 56.6065 8.45C56.6359 8.61133 56.6725 8.74333 56.7165 8.846C56.7679 8.94867 56.8779 9 57.0465 9H54.9015ZM54.7695 6.646C54.6449 6.00067 54.5165 5.34433 54.3845 4.677C54.2599 4.00233 54.1425 3.368 54.0325 2.774C53.9225 3.368 53.8015 4.00233 53.6695 4.677C53.5449 5.34433 53.4202 6.00067 53.2955 6.646H54.7695ZM59.0852 8.384C59.2465 8.37667 59.4372 8.362 59.6572 8.34C59.8845 8.318 60.1082 8.27767 60.3282 8.219C60.5482 8.16033 60.7462 8.076 60.9222 7.966C61.1055 7.856 61.2302 7.70567 61.2962 7.515L61.0872 9H57.2702C57.4315 9 57.5268 8.94867 57.5562 8.846C57.5855 8.736 57.6002 8.61133 57.6002 8.472V1.828C57.6002 1.762 57.5965 1.69967 57.5892 1.641C57.5892 1.575 57.5782 1.52 57.5562 1.476C57.5342 1.42467 57.5012 1.38433 57.4572 1.355C57.4132 1.31833 57.3508 1.3 57.2702 1.3H59.4152C59.3345 1.3 59.2722 1.31467 59.2282 1.344C59.1842 1.37333 59.1512 1.41367 59.1292 1.465C59.1072 1.509 59.0925 1.564 59.0852 1.63C59.0852 1.696 59.0852 1.762 59.0852 1.828V8.384ZM61.5241 1.3H63.6691C63.5884 1.3 63.5261 1.31833 63.4821 1.355C63.4381 1.38433 63.4051 1.42833 63.3831 1.487C63.3611 1.53833 63.3464 1.597 63.3391 1.663C63.3391 1.72167 63.3391 1.784 63.3391 1.85V8.45C63.3391 8.516 63.3391 8.582 63.3391 8.648C63.3464 8.714 63.3611 8.77267 63.3831 8.824C63.4051 8.87533 63.4381 8.91933 63.4821 8.956C63.5261 8.98533 63.5884 9 63.6691 9H61.5241C61.6927 9 61.7881 8.94867 61.8101 8.846C61.8394 8.74333 61.8541 8.61133 61.8541 8.45V1.85C61.8541 1.784 61.8504 1.72167 61.8431 1.663C61.8431 1.597 61.8321 1.53833 61.8101 1.487C61.7881 1.42833 61.7551 1.38433 61.7111 1.355C61.6671 1.31833 61.6047 1.3 61.5241 1.3ZM66.8683 9C66.949 9 67.0077 8.98533 67.0443 8.956C67.081 8.91933 67.103 8.87533 67.1103 8.824C67.125 8.77267 67.125 8.714 67.1103 8.648C67.103 8.582 67.0957 8.516 67.0883 8.45C67.0443 8.23 66.9967 7.99533 66.9453 7.746C66.9013 7.49667 66.8537 7.24 66.8023 6.976H65.1963C65.145 7.24 65.0937 7.49667 65.0423 7.746C64.9983 7.99533 64.9543 8.23 64.9103 8.45C64.8957 8.53067 64.8847 8.604 64.8773 8.67C64.87 8.736 64.87 8.79467 64.8773 8.846C64.892 8.89733 64.9177 8.93767 64.9543 8.967C64.9983 8.989 65.0607 9 65.1413 9H63.8873C64.056 9 64.1623 8.94133 64.2063 8.824C64.2577 8.70667 64.298 8.582 64.3273 8.45C64.4153 7.988 64.5143 7.471 64.6243 6.899C64.7343 6.327 64.848 5.744 64.9653 5.15C65.0827 4.556 65.1963 3.973 65.3063 3.401C65.4237 2.829 65.5263 2.312 65.6143 1.85C65.629 1.784 65.64 1.718 65.6473 1.652C65.6547 1.586 65.651 1.52733 65.6363 1.476C65.629 1.42467 65.6033 1.38433 65.5593 1.355C65.5153 1.31833 65.4493 1.3 65.3613 1.3H67.5063C67.4257 1.3 67.3633 1.31833 67.3193 1.355C67.2827 1.38433 67.257 1.42833 67.2423 1.487C67.235 1.53833 67.235 1.597 67.2423 1.663C67.257 1.72167 67.2717 1.784 67.2863 1.85C67.3743 2.312 67.4733 2.829 67.5833 3.401C67.6933 3.973 67.807 4.556 67.9243 5.15C68.0417 5.744 68.1553 6.327 68.2653 6.899C68.3827 7.471 68.4853 7.988 68.5733 8.45C68.6027 8.61133 68.6393 8.74333 68.6833 8.846C68.7347 8.94867 68.8447 9 69.0133 9H66.8683ZM66.7363 6.646C66.6117 6.00067 66.4833 5.34433 66.3513 4.677C66.2267 4.00233 66.1093 3.368 65.9993 2.774C65.8893 3.368 65.7683 4.00233 65.6363 4.677C65.5117 5.34433 65.387 6.00067 65.2623 6.646H66.7363ZM73.78 8.45C73.78 8.516 73.78 8.582 73.78 8.648C73.7873 8.714 73.802 8.77267 73.824 8.824C73.846 8.87533 73.879 8.91933 73.923 8.956C73.967 8.98533 74.0293 9 74.11 9H71.954C72.1226 9 72.207 8.94867 72.207 8.846C72.2143 8.736 72.1886 8.604 72.13 8.45C72.0053 8.11267 71.8586 7.724 71.69 7.284C71.5286 6.844 71.36 6.38933 71.184 5.92C71.008 5.44333 70.832 4.97033 70.656 4.501C70.48 4.02433 70.315 3.58433 70.161 3.181V8.45C70.161 8.516 70.161 8.582 70.161 8.648C70.1683 8.714 70.183 8.77267 70.205 8.824C70.227 8.87533 70.26 8.91933 70.304 8.956C70.348 8.98533 70.4103 9 70.491 9H69.237C69.4056 9 69.501 8.94867 69.523 8.846C69.5523 8.74333 69.567 8.61133 69.567 8.45V1.85C69.567 1.784 69.5633 1.72167 69.556 1.663C69.556 1.597 69.545 1.53833 69.523 1.487C69.501 1.42833 69.468 1.38433 69.424 1.355C69.38 1.31833 69.3176 1.3 69.237 1.3H71.404C71.3233 1.3 71.2646 1.31833 71.228 1.355C71.1913 1.38433 71.1693 1.42833 71.162 1.487C71.1546 1.53833 71.1583 1.597 71.173 1.663C71.1876 1.72167 71.206 1.784 71.228 1.85C71.36 2.23867 71.5066 2.65667 71.668 3.104C71.8366 3.544 72.0053 3.995 72.174 4.457C72.3426 4.91167 72.515 5.36633 72.691 5.821C72.867 6.27567 73.032 6.70833 73.186 7.119V1.85C73.186 1.784 73.1823 1.72167 73.175 1.663C73.175 1.597 73.164 1.53833 73.142 1.487C73.12 1.42833 73.087 1.38433 73.043 1.355C72.999 1.31833 72.9366 1.3 72.856 1.3H74.11C74.0293 1.3 73.967 1.31833 73.923 1.355C73.879 1.38433 73.846 1.42833 73.824 1.487C73.802 1.53833 73.7873 1.597 73.78 1.663C73.78 1.72167 73.78 1.784 73.78 1.85V8.45ZM78.0709 3.478C78.2176 3.77133 78.4376 4.04267 78.7309 4.292C79.0316 4.54133 79.3396 4.79433 79.6549 5.051C79.9702 5.30033 80.2599 5.568 80.5239 5.854C80.7879 6.14 80.9602 6.46633 81.0409 6.833C81.1216 7.22167 81.1179 7.56267 81.0299 7.856C80.9419 8.142 80.7952 8.384 80.5899 8.582C80.3846 8.77267 80.1316 8.91567 79.8309 9.011C79.5302 9.11367 79.2076 9.165 78.8629 9.165C78.4596 9.165 78.0636 9.07333 77.6749 8.89C77.2862 8.69933 76.9489 8.46467 76.6629 8.186C76.6996 8.01 76.7399 7.83033 76.7839 7.647C76.8279 7.45633 76.8682 7.28767 76.9049 7.141C76.9416 6.965 76.9819 6.79267 77.0259 6.624C77.2092 7.02733 77.4219 7.34633 77.6639 7.581C77.9059 7.81567 78.1479 7.98433 78.3899 8.087C78.6392 8.18967 78.8739 8.23 79.0939 8.208C79.3139 8.186 79.4899 8.12367 79.6219 8.021C79.7612 7.911 79.8456 7.76433 79.8749 7.581C79.9042 7.39767 79.8492 7.19233 79.7099 6.965C79.6146 6.79633 79.4752 6.63133 79.2919 6.47C79.1159 6.30133 78.9179 6.129 78.6979 5.953C78.4852 5.777 78.2652 5.59733 78.0379 5.414C77.8106 5.22333 77.5979 5.018 77.3999 4.798C77.2092 4.578 77.0442 4.34333 76.9049 4.094C76.7656 3.84467 76.6812 3.57333 76.6519 3.28C76.6152 2.95 76.6446 2.653 76.7399 2.389C76.8426 2.125 76.9966 1.90133 77.2019 1.718C77.4072 1.52733 77.6566 1.38433 77.9499 1.289C78.2506 1.18633 78.5769 1.135 78.9289 1.135C79.1929 1.135 79.4386 1.16067 79.6659 1.212C79.8932 1.26333 80.0949 1.32567 80.2709 1.399C80.4469 1.47233 80.5972 1.553 80.7219 1.641C80.8539 1.72167 80.9529 1.79133 81.0189 1.85C80.9822 2.03333 80.9419 2.21667 80.8979 2.4C80.8612 2.576 80.8246 2.73733 80.7879 2.884L80.6779 3.379C80.4799 2.96833 80.2599 2.64933 80.0179 2.422C79.7832 2.18733 79.5449 2.03333 79.3029 1.96C79.0682 1.87933 78.8482 1.86467 78.6429 1.916C78.4376 1.96 78.2689 2.05533 78.1369 2.202C78.0122 2.34867 77.9352 2.532 77.9059 2.752C77.8839 2.972 77.9389 3.214 78.0709 3.478ZM84.0358 1.3C84.4318 1.3 84.7692 1.36233 85.0478 1.487C85.3338 1.60433 85.5685 1.76933 85.7518 1.982C85.9352 2.19467 86.0708 2.45133 86.1588 2.752C86.2468 3.04533 86.2908 3.368 86.2908 3.72C86.2908 4.006 86.2468 4.28833 86.1588 4.567C86.0708 4.84567 85.9352 5.095 85.7518 5.315C85.5685 5.52767 85.3338 5.70367 85.0478 5.843C84.7692 5.975 84.4318 6.041 84.0358 6.041H83.2658V8.45C83.2658 8.516 83.2658 8.582 83.2658 8.648C83.2732 8.714 83.2878 8.77267 83.3098 8.824C83.3318 8.87533 83.3648 8.91933 83.4088 8.956C83.4528 8.98533 83.5152 9 83.5958 9H81.4508C81.6195 9 81.7148 8.94867 81.7368 8.846C81.7662 8.74333 81.7808 8.61133 81.7808 8.45V1.85C81.7808 1.784 81.7772 1.72167 81.7698 1.663C81.7698 1.597 81.7588 1.53833 81.7368 1.487C81.7148 1.42833 81.6818 1.38433 81.6378 1.355C81.5938 1.31833 81.5315 1.3 81.4508 1.3H84.0358ZM83.2658 5.634C83.7645 5.59733 84.1458 5.41033 84.4098 5.073C84.6738 4.72833 84.8058 4.27733 84.8058 3.72C84.8058 3.03067 84.6702 2.52833 84.3988 2.213C84.1348 1.89033 83.7572 1.72167 83.2658 1.707V5.634ZM91.2818 8.45C91.3405 8.61133 91.4101 8.74333 91.4908 8.846C91.5715 8.94867 91.6741 9 91.7988 9H90.5338C90.3358 9 90.1708 8.94867 90.0388 8.846C89.9141 8.736 89.8298 8.604 89.7858 8.45C89.7418 8.28867 89.6831 8.09067 89.6098 7.856C89.5438 7.62133 89.4741 7.37567 89.4008 7.119C89.3275 6.86233 89.2541 6.602 89.1808 6.338C89.1075 6.074 89.0378 5.82833 88.9718 5.601H88.4328V8.516C88.4328 8.61867 88.4475 8.725 88.4768 8.835C88.5135 8.945 88.6088 9 88.7628 9H86.6178C86.7791 9 86.8745 8.94867 86.9038 8.846C86.9331 8.736 86.9478 8.626 86.9478 8.516V1.762C86.9478 1.718 86.9441 1.67033 86.9368 1.619C86.9368 1.56767 86.9258 1.52 86.9038 1.476C86.8818 1.42467 86.8488 1.38433 86.8048 1.355C86.7608 1.31833 86.6985 1.3 86.6178 1.3H89.2358C89.6025 1.3 89.9178 1.355 90.1818 1.465C90.4458 1.575 90.6621 1.729 90.8308 1.927C91.0068 2.11767 91.1351 2.34867 91.2158 2.62C91.2965 2.884 91.3368 3.17367 91.3368 3.489C91.3368 3.87767 91.2488 4.248 91.0728 4.6C90.9041 4.952 90.6365 5.216 90.2698 5.392C90.3725 5.71467 90.4641 5.997 90.5448 6.239C90.6255 6.481 90.7025 6.71567 90.7758 6.943C90.8565 7.17033 90.9335 7.405 91.0068 7.647C91.0875 7.88167 91.1791 8.14933 91.2818 8.45ZM88.4328 5.205C88.9168 5.205 89.2725 5.04733 89.4998 4.732C89.7345 4.41667 89.8518 4.00233 89.8518 3.489C89.8518 2.86567 89.7308 2.411 89.4888 2.125C89.2468 1.839 88.8948 1.69233 88.4328 1.685V5.205ZM91.6881 1.3H93.8331C93.7525 1.3 93.6901 1.31833 93.6461 1.355C93.6021 1.38433 93.5691 1.42833 93.5471 1.487C93.5251 1.53833 93.5105 1.597 93.5031 1.663C93.5031 1.72167 93.5031 1.784 93.5031 1.85V8.45C93.5031 8.516 93.5031 8.582 93.5031 8.648C93.5105 8.714 93.5251 8.77267 93.5471 8.824C93.5691 8.87533 93.6021 8.91933 93.6461 8.956C93.6901 8.98533 93.7525 9 93.8331 9H91.6881C91.8568 9 91.9521 8.94867 91.9741 8.846C92.0035 8.74333 92.0181 8.61133 92.0181 8.45V1.85C92.0181 1.784 92.0145 1.72167 92.0071 1.663C92.0071 1.597 91.9961 1.53833 91.9741 1.487C91.9521 1.42833 91.9191 1.38433 91.8751 1.355C91.8311 1.31833 91.7688 1.3 91.6881 1.3ZM98.5944 8.45C98.5944 8.516 98.5944 8.582 98.5944 8.648C98.6017 8.714 98.6164 8.77267 98.6384 8.824C98.6604 8.87533 98.6934 8.91933 98.7374 8.956C98.7814 8.98533 98.8437 9 98.9244 9H96.7684C96.9371 9 97.0214 8.94867 97.0214 8.846C97.0287 8.736 97.0031 8.604 96.9444 8.45C96.8197 8.11267 96.6731 7.724 96.5044 7.284C96.3431 6.844 96.1744 6.38933 95.9984 5.92C95.8224 5.44333 95.6464 4.97033 95.4704 4.501C95.2944 4.02433 95.1294 3.58433 94.9754 3.181V8.45C94.9754 8.516 94.9754 8.582 94.9754 8.648C94.9827 8.714 94.9974 8.77267 95.0194 8.824C95.0414 8.87533 95.0744 8.91933 95.1184 8.956C95.1624 8.98533 95.2247 9 95.3054 9H94.0514C94.2201 9 94.3154 8.94867 94.3374 8.846C94.3667 8.74333 94.3814 8.61133 94.3814 8.45V1.85C94.3814 1.784 94.3777 1.72167 94.3704 1.663C94.3704 1.597 94.3594 1.53833 94.3374 1.487C94.3154 1.42833 94.2824 1.38433 94.2384 1.355C94.1944 1.31833 94.1321 1.3 94.0514 1.3H96.2184C96.1377 1.3 96.0791 1.31833 96.0424 1.355C96.0057 1.38433 95.9837 1.42833 95.9764 1.487C95.9691 1.53833 95.9727 1.597 95.9874 1.663C96.0021 1.72167 96.0204 1.784 96.0424 1.85C96.1744 2.23867 96.3211 2.65667 96.4824 3.104C96.6511 3.544 96.8197 3.995 96.9884 4.457C97.1571 4.91167 97.3294 5.36633 97.5054 5.821C97.6814 6.27567 97.8464 6.70833 98.0004 7.119V1.85C98.0004 1.784 97.9967 1.72167 97.9894 1.663C97.9894 1.597 97.9784 1.53833 97.9564 1.487C97.9344 1.42833 97.9014 1.38433 97.8574 1.355C97.8134 1.31833 97.7511 1.3 97.6704 1.3H98.9244C98.8437 1.3 98.7814 1.31833 98.7374 1.355C98.6934 1.38433 98.6604 1.42833 98.6384 1.487C98.6164 1.53833 98.6017 1.597 98.5944 1.663C98.5944 1.72167 98.5944 1.784 98.5944 1.85V8.45ZM103.906 4.05V8.945C103.606 9.011 103.312 9.06233 103.026 9.099C102.74 9.143 102.487 9.165 102.267 9.165C101.769 9.165 101.332 9.06233 100.958 8.857C100.584 8.64433 100.273 8.35833 100.023 7.999C99.7812 7.63233 99.5979 7.20333 99.4732 6.712C99.3485 6.22067 99.2862 5.69267 99.2862 5.128C99.2862 4.54133 99.3375 4.006 99.4402 3.522C99.5502 3.03067 99.7225 2.609 99.9572 2.257C100.192 1.905 100.493 1.63 100.859 1.432C101.233 1.234 101.684 1.135 102.212 1.135C102.469 1.135 102.689 1.157 102.872 1.201C103.063 1.245 103.246 1.29633 103.422 1.355V2.565C103.004 2.147 102.627 1.89767 102.289 1.817C101.959 1.73633 101.677 1.80967 101.442 2.037C101.208 2.26433 101.024 2.63833 100.892 3.159C100.768 3.67967 100.705 4.336 100.705 5.128C100.705 5.70733 100.746 6.22067 100.826 6.668C100.914 7.108 101.035 7.471 101.189 7.757C101.351 8.03567 101.541 8.23367 101.761 8.351C101.981 8.46833 102.223 8.49033 102.487 8.417V5.15C102.487 5.084 102.484 5.02167 102.476 4.963C102.476 4.897 102.465 4.83833 102.443 4.787C102.429 4.72833 102.399 4.68433 102.355 4.655C102.311 4.61833 102.249 4.6 102.168 4.6L103.906 4.05ZM114.862 1.3C114.694 1.3 114.584 1.35867 114.532 1.476C114.488 1.59333 114.452 1.718 114.422 1.85C114.334 2.312 114.232 2.829 114.114 3.401C114.004 3.973 113.891 4.556 113.773 5.15C113.663 5.744 113.55 6.327 113.432 6.899C113.322 7.471 113.223 7.988 113.135 8.45C113.121 8.516 113.11 8.582 113.102 8.648C113.095 8.714 113.099 8.77267 113.113 8.824C113.128 8.87533 113.157 8.91933 113.201 8.956C113.245 8.98533 113.308 9 113.388 9H111.243C111.324 9 111.383 8.98533 111.419 8.956C111.463 8.91933 111.489 8.87533 111.496 8.824C111.511 8.76533 111.511 8.70667 111.496 8.648C111.489 8.582 111.482 8.516 111.474 8.45C111.416 8.142 111.353 7.80467 111.287 7.438C111.221 7.07133 111.152 6.69367 111.078 6.305C111.012 5.91633 110.943 5.524 110.869 5.128C110.803 4.72467 110.737 4.336 110.671 3.962C110.605 4.336 110.536 4.72467 110.462 5.128C110.389 5.524 110.316 5.91633 110.242 6.305C110.176 6.69367 110.11 7.07133 110.044 7.438C109.978 7.80467 109.916 8.142 109.857 8.45C109.843 8.50867 109.832 8.571 109.824 8.637C109.817 8.703 109.817 8.76533 109.824 8.824C109.839 8.87533 109.868 8.91933 109.912 8.956C109.956 8.98533 110.026 9 110.121 9H107.976C108.057 9 108.116 8.98533 108.152 8.956C108.196 8.91933 108.222 8.87533 108.229 8.824C108.244 8.76533 108.244 8.70667 108.229 8.648C108.222 8.582 108.211 8.516 108.196 8.45C108.108 7.988 108.006 7.471 107.888 6.899C107.778 6.327 107.665 5.744 107.547 5.15C107.437 4.556 107.324 3.973 107.206 3.401C107.096 2.829 106.997 2.312 106.909 1.85C106.873 1.68867 106.832 1.55667 106.788 1.454C106.744 1.35133 106.638 1.3 106.469 1.3H108.614C108.534 1.3 108.471 1.31833 108.427 1.355C108.391 1.38433 108.365 1.42467 108.35 1.476C108.343 1.52733 108.343 1.586 108.35 1.652C108.365 1.718 108.38 1.784 108.394 1.85C108.468 2.23867 108.548 2.67133 108.636 3.148C108.732 3.61733 108.823 4.10133 108.911 4.6C109.007 5.09133 109.102 5.58633 109.197 6.085C109.293 6.58367 109.384 7.05667 109.472 7.504C109.546 7.09333 109.619 6.66067 109.692 6.206C109.766 5.744 109.835 5.282 109.901 4.82C109.975 4.358 110.041 3.907 110.099 3.467C110.165 3.01967 110.224 2.60533 110.275 2.224C110.261 2.136 110.242 2.04067 110.22 1.938C110.198 1.828 110.169 1.729 110.132 1.641C110.096 1.54567 110.044 1.465 109.978 1.399C109.92 1.333 109.843 1.3 109.747 1.3H111.892C111.812 1.3 111.749 1.31833 111.705 1.355C111.669 1.38433 111.643 1.42467 111.628 1.476C111.621 1.52733 111.621 1.586 111.628 1.652C111.636 1.718 111.647 1.784 111.661 1.85C111.735 2.23867 111.815 2.67133 111.903 3.148C111.999 3.61733 112.094 4.10133 112.189 4.6C112.285 5.09133 112.376 5.58633 112.464 6.085C112.56 6.58367 112.651 7.05667 112.739 7.504C112.82 7.05667 112.901 6.58367 112.981 6.085C113.069 5.58633 113.15 5.09133 113.223 4.6C113.304 4.10133 113.374 3.61733 113.432 3.148C113.498 2.67133 113.553 2.23867 113.597 1.85C113.619 1.68867 113.619 1.55667 113.597 1.454C113.583 1.35133 113.491 1.3 113.322 1.3H114.862ZM116.852 9C116.932 9 116.991 8.98533 117.028 8.956C117.064 8.91933 117.086 8.87533 117.094 8.824C117.108 8.77267 117.108 8.714 117.094 8.648C117.086 8.582 117.079 8.516 117.072 8.45C117.028 8.23 116.98 7.99533 116.929 7.746C116.885 7.49667 116.837 7.24 116.786 6.976H115.18C115.128 7.24 115.077 7.49667 115.026 7.746C114.982 7.99533 114.938 8.23 114.894 8.45C114.879 8.53067 114.868 8.604 114.861 8.67C114.853 8.736 114.853 8.79467 114.861 8.846C114.875 8.89733 114.901 8.93767 114.938 8.967C114.982 8.989 115.044 9 115.125 9H113.871C114.039 9 114.146 8.94133 114.19 8.824C114.241 8.70667 114.281 8.582 114.311 8.45C114.399 7.988 114.498 7.471 114.608 6.899C114.718 6.327 114.831 5.744 114.949 5.15C115.066 4.556 115.18 3.973 115.29 3.401C115.407 2.829 115.51 2.312 115.598 1.85C115.612 1.784 115.623 1.718 115.631 1.652C115.638 1.586 115.634 1.52733 115.62 1.476C115.612 1.42467 115.587 1.38433 115.543 1.355C115.499 1.31833 115.433 1.3 115.345 1.3H117.49C117.409 1.3 117.347 1.31833 117.303 1.355C117.266 1.38433 117.24 1.42833 117.226 1.487C117.218 1.53833 117.218 1.597 117.226 1.663C117.24 1.72167 117.255 1.784 117.27 1.85C117.358 2.312 117.457 2.829 117.567 3.401C117.677 3.973 117.79 4.556 117.908 5.15C118.025 5.744 118.139 6.327 118.249 6.899C118.366 7.471 118.469 7.988 118.557 8.45C118.586 8.61133 118.623 8.74333 118.667 8.846C118.718 8.94867 118.828 9 118.997 9H116.852ZM116.72 6.646C116.595 6.00067 116.467 5.34433 116.335 4.677C116.21 4.00233 116.093 3.368 115.983 2.774C115.873 3.368 115.752 4.00233 115.62 4.677C115.495 5.34433 115.37 6.00067 115.246 6.646H116.72ZM123.315 2.983C123.249 2.79967 123.143 2.653 122.996 2.543C122.857 2.433 122.699 2.34867 122.523 2.29C122.355 2.23133 122.175 2.19467 121.984 2.18C121.801 2.158 121.632 2.13967 121.478 2.125V8.45C121.478 8.516 121.478 8.582 121.478 8.648C121.486 8.714 121.5 8.77267 121.522 8.824C121.544 8.87533 121.577 8.91933 121.621 8.956C121.665 8.98533 121.728 9 121.808 9H119.663C119.832 9 119.927 8.94867 119.949 8.846C119.979 8.74333 119.993 8.61133 119.993 8.45V2.125C119.839 2.13967 119.671 2.158 119.487 2.18C119.304 2.202 119.128 2.24233 118.959 2.301C118.791 2.35967 118.633 2.444 118.486 2.554C118.347 2.65667 118.244 2.79967 118.178 2.983L118.332 1.3H123.172L123.315 2.983ZM125.493 8.175C125.655 8.16767 125.849 8.15667 126.076 8.142C126.311 8.12 126.538 8.07967 126.758 8.021C126.986 7.96233 127.191 7.878 127.374 7.768C127.558 7.65067 127.686 7.49667 127.759 7.306L127.55 9H123.678C123.847 9 123.942 8.94867 123.964 8.846C123.994 8.74333 124.008 8.61133 124.008 8.45V1.85C124.008 1.784 124.005 1.72167 123.997 1.663C123.997 1.597 123.986 1.53833 123.964 1.487C123.942 1.42833 123.909 1.38433 123.865 1.355C123.821 1.31833 123.759 1.3 123.678 1.3H127.583L127.66 2.983C127.594 2.79967 127.473 2.65667 127.297 2.554C127.121 2.444 126.923 2.35967 126.703 2.301C126.491 2.235 126.274 2.191 126.054 2.169C125.834 2.147 125.647 2.13233 125.493 2.125V4.897C125.611 4.88967 125.761 4.87867 125.944 4.864C126.135 4.842 126.318 4.80533 126.494 4.754C126.67 4.69533 126.821 4.61467 126.945 4.512C127.07 4.40933 127.132 4.27367 127.132 4.105V6.118C127.132 5.94933 127.07 5.81367 126.945 5.711C126.821 5.60833 126.67 5.53133 126.494 5.48C126.318 5.42133 126.135 5.381 125.944 5.359C125.761 5.337 125.611 5.32233 125.493 5.315V8.175ZM132.65 8.45C132.709 8.61133 132.778 8.74333 132.859 8.846C132.94 8.94867 133.042 9 133.167 9H131.902C131.704 9 131.539 8.94867 131.407 8.846C131.282 8.736 131.198 8.604 131.154 8.45C131.11 8.28867 131.051 8.09067 130.978 7.856C130.912 7.62133 130.842 7.37567 130.769 7.119C130.696 6.86233 130.622 6.602 130.549 6.338C130.476 6.074 130.406 5.82833 130.34 5.601H129.801V8.516C129.801 8.61867 129.816 8.725 129.845 8.835C129.882 8.945 129.977 9 130.131 9H127.986C128.147 9 128.243 8.94867 128.272 8.846C128.301 8.736 128.316 8.626 128.316 8.516V1.762C128.316 1.718 128.312 1.67033 128.305 1.619C128.305 1.56767 128.294 1.52 128.272 1.476C128.25 1.42467 128.217 1.38433 128.173 1.355C128.129 1.31833 128.067 1.3 127.986 1.3H130.604C130.971 1.3 131.286 1.355 131.55 1.465C131.814 1.575 132.03 1.729 132.199 1.927C132.375 2.11767 132.503 2.34867 132.584 2.62C132.665 2.884 132.705 3.17367 132.705 3.489C132.705 3.87767 132.617 4.248 132.441 4.6C132.272 4.952 132.005 5.216 131.638 5.392C131.741 5.71467 131.832 5.997 131.913 6.239C131.994 6.481 132.071 6.71567 132.144 6.943C132.225 7.17033 132.302 7.405 132.375 7.647C132.456 7.88167 132.547 8.14933 132.65 8.45ZM129.801 5.205C130.285 5.205 130.641 5.04733 130.868 4.732C131.103 4.41667 131.22 4.00233 131.22 3.489C131.22 2.86567 131.099 2.411 130.857 2.125C130.615 1.839 130.263 1.69233 129.801 1.685V5.205Z" fill="#005F71"/>
<g clip-path="url(#clip0_9108_15348)">
<path d="M63.408 71.5888C62.9552 71.5888 62.5637 71.507 62.2377 71.3434C61.9111 71.1792 61.6152 70.9307 61.3506 70.5974L62.0796 69.8339C62.2528 70.066 62.4491 70.2454 62.6679 70.3726C62.8868 70.4999 63.1555 70.5635 63.474 70.5635C63.7606 70.5635 63.987 70.5035 64.155 70.3848C64.3223 70.2672 64.4068 70.1018 64.4068 69.8927C64.4068 69.7121 64.3582 69.5649 64.2609 69.451C64.1636 69.3383 64.0351 69.2431 63.8758 69.1674C63.7166 69.091 63.5406 69.0201 63.3489 68.9553C63.1555 68.8905 62.965 68.8159 62.7756 68.7311C62.5869 68.6475 62.4108 68.5384 62.2493 68.4087C62.0877 68.2791 61.9586 68.1161 61.8648 67.9173C61.7704 67.7198 61.7235 67.4653 61.7235 67.1544C61.7235 66.7921 61.8063 66.4849 61.9742 66.2304C62.141 65.9752 62.3709 65.7801 62.6621 65.645C62.9552 65.5087 63.2835 65.4414 63.6523 65.4414C64.0409 65.4414 64.3929 65.5178 64.7091 65.6705C65.0247 65.8232 65.2801 66.0213 65.4746 66.2637L64.745 67.0266C64.5777 66.8351 64.4063 66.6927 64.2314 66.603C64.0548 66.5121 63.8567 66.4673 63.635 66.4673C63.3808 66.4673 63.181 66.5188 63.0356 66.6236C62.8891 66.7291 62.8162 66.8739 62.8162 67.0611C62.8162 67.2247 62.8654 67.3556 62.9627 67.455C63.06 67.5544 63.1879 67.6416 63.3472 67.7186C63.5058 67.7949 63.6836 67.867 63.8782 67.9337C64.0721 68.0022 64.2644 68.0797 64.4537 68.1676C64.6425 68.2554 64.8168 68.3651 64.9761 68.499C65.1359 68.6311 65.2638 68.8038 65.3611 69.0153C65.4584 69.228 65.5071 69.4885 65.5071 69.8C65.5071 70.3538 65.3212 70.7907 64.9483 71.1101C64.5748 71.43 64.0629 71.5888 63.408 71.5888Z" fill="#005F71"/>
<path d="M69.0976 65.5341H67.9951V71.496H69.0976V65.5341Z" fill="#005F71"/>
<path d="M71.8838 71.496V65.5341H72.6539L72.9869 66.6963V71.496H71.8838ZM75.8231 71.496L72.4437 66.9253L72.6539 65.5341L76.042 70.1053L75.8231 71.496ZM75.8231 71.496L75.5075 70.3768V65.5341H76.6089V71.496H75.8231Z" fill="#005F71"/>
<path d="M82.0471 71.5888C81.6249 71.5888 81.2364 71.51 80.8797 71.3512C80.5224 71.1931 80.2103 70.9743 79.9434 70.6944C79.6758 70.4144 79.4703 70.0878 79.3238 69.7146C79.1784 69.3419 79.1055 68.9408 79.1055 68.5105C79.1055 68.0809 79.1784 67.6798 79.3238 67.3071C79.4703 66.9339 79.6747 66.6085 79.9393 66.3315C80.2039 66.0552 80.5149 65.8371 80.871 65.6789C81.2283 65.5208 81.6139 65.4414 82.0297 65.4414C82.4941 65.4414 82.8983 65.519 83.2417 65.6747C83.5845 65.8304 83.8885 66.0407 84.1531 66.3067L83.3997 67.095C83.2428 66.9139 83.0506 66.7727 82.8242 66.6715C82.5972 66.5697 82.332 66.5182 82.0297 66.5182C81.7709 66.5182 81.5317 66.5648 81.3134 66.6588C81.0945 66.7515 80.904 66.8872 80.7419 67.0647C80.5797 67.2429 80.4558 67.455 80.369 67.7004C80.2821 67.9464 80.2387 68.2179 80.2387 68.5105C80.2387 68.8105 80.2815 69.0832 80.369 69.3298C80.4552 69.5752 80.5792 69.7861 80.7419 69.9612C80.9034 70.1369 81.0939 70.2726 81.3134 70.3684C81.5317 70.4647 81.7732 70.512 82.0384 70.512C82.3569 70.512 82.6296 70.4599 82.8566 70.3557C83.0842 70.2508 83.2787 70.1084 83.4403 69.9273L84.1942 70.7162C83.9238 70.9865 83.6117 71.201 83.2585 71.3567C82.9041 71.5112 82.4999 71.5888 82.0471 71.5888Z" fill="#005F71"/>
<path d="M87.3869 70.478H90.5392V71.4954H87.3869V70.478ZM87.3869 67.9597H90.2636V68.9522H87.3869V67.9597ZM86.5762 65.5341H87.6787V71.496H86.5768L86.5762 65.5341ZM87.3869 65.5341H90.4987V66.5521H87.3869V65.5341Z" fill="#005F71"/>
<path d="M95.8799 65.5341H98.012V66.5351H95.8799V65.5341ZM96.9992 65.5341H98.0925V71.496H96.9992V65.5341Z" fill="#005F71"/>
<path d="M102.542 70.5719C102.715 70.5719 102.872 70.5337 103.012 70.4568C103.152 70.381 103.264 70.275 103.344 70.1399C103.426 70.0041 103.466 69.849 103.466 69.6727C103.466 69.5042 103.426 69.3546 103.344 69.2237C103.263 69.0934 103.152 68.9892 103.012 68.9092C102.872 68.8304 102.715 68.791 102.542 68.791C102.358 68.791 102.198 68.8304 102.06 68.9092C101.922 68.9892 101.812 69.0934 101.731 69.2237C101.651 69.3546 101.61 69.5042 101.61 69.6727C101.61 69.8484 101.651 70.0041 101.731 70.1399C101.813 70.2756 101.924 70.381 102.064 70.4568C102.204 70.5331 102.363 70.5719 102.542 70.5719ZM102.542 67.9257C102.753 67.9257 102.925 67.8536 103.061 67.7094C103.196 67.5652 103.264 67.3858 103.264 67.1701C103.264 66.9447 103.196 66.7611 103.061 66.6193C102.926 66.4793 102.753 66.4078 102.542 66.4078C102.331 66.4078 102.158 66.4763 102.02 66.6157C101.881 66.7544 101.813 66.9362 101.813 67.1622C101.813 67.3767 101.881 67.5573 102.02 67.7052C102.158 67.8524 102.331 67.9257 102.542 67.9257ZM102.542 71.5887C102.137 71.5887 101.787 71.5136 101.492 71.3639C101.198 71.2142 100.968 71.007 100.8 70.7416C100.633 70.4762 100.548 70.1762 100.548 69.843C100.548 69.5654 100.6 69.314 100.703 69.0879C100.806 68.8613 100.954 68.6723 101.149 68.5196C101.343 68.3675 101.571 68.256 101.829 68.1887L101.796 68.4693C101.581 68.4117 101.398 68.3129 101.25 68.1717C101.101 68.0306 100.987 67.8621 100.909 67.6676C100.83 67.4725 100.792 67.2677 100.792 67.052C100.792 66.7363 100.867 66.4563 101.019 66.2121C101.17 65.9697 101.377 65.7782 101.639 65.6407C101.9 65.5019 102.202 65.4316 102.543 65.4316C102.883 65.4316 103.182 65.5013 103.442 65.6407C103.701 65.7789 103.906 65.9697 104.055 66.2121C104.203 66.4557 104.277 66.7356 104.277 67.052C104.277 67.2671 104.239 67.4719 104.164 67.6676C104.089 67.8621 103.976 68.0306 103.828 68.1717C103.679 68.3129 103.497 68.4117 103.28 68.4693L103.248 68.1887C103.513 68.256 103.742 68.3675 103.934 68.5196C104.125 68.6723 104.272 68.8607 104.375 69.0879C104.478 69.314 104.529 69.5654 104.529 69.843C104.529 70.1768 104.447 70.4762 104.282 70.7416C104.118 71.007 103.885 71.2142 103.589 71.3639C103.292 71.5136 102.941 71.5887 102.542 71.5887Z" fill="#005F71"/>
<path d="M108.312 71.5887C107.929 71.5887 107.576 71.5166 107.258 71.3736C106.939 71.2294 106.673 71.0185 106.457 70.7416L107.186 69.9872C107.294 70.1556 107.447 70.292 107.647 70.3938C107.847 70.4956 108.063 70.5465 108.296 70.5465C108.512 70.5465 108.698 70.5059 108.855 70.4235C109.012 70.3417 109.134 70.2259 109.22 70.0763C109.306 69.9266 109.35 69.749 109.35 69.5461C109.35 69.3425 109.305 69.1685 109.216 69.0249C109.127 68.8801 109 68.7674 108.835 68.685C108.671 68.6032 108.469 68.562 108.232 68.562C108.135 68.562 108.032 68.5711 107.924 68.588C107.816 68.6044 107.724 68.6268 107.648 68.6553L108.135 67.9936C108.269 67.9488 108.404 67.9124 108.535 67.8833C108.668 67.8548 108.79 67.8415 108.904 67.8415C109.195 67.8415 109.46 67.9136 109.694 68.0572C109.929 68.2008 110.116 68.4044 110.253 68.6674C110.391 68.931 110.46 69.2425 110.46 69.6054C110.46 69.9951 110.369 70.3386 110.189 70.6349C110.007 70.9319 109.758 71.1652 109.438 71.3342C109.119 71.5051 108.744 71.5887 108.312 71.5887ZM107.647 68.6553V67.9851L109.106 66.2121L110.378 66.1958L108.863 68.01L107.647 68.6553ZM106.772 66.5345V65.5334H110.378V66.1958L109.471 66.5351L106.772 66.5345Z" fill="#005F71"/>
<path d="M114.389 71.5887C114.006 71.5887 113.655 71.5166 113.336 71.3736C113.018 71.2294 112.75 71.0185 112.535 70.7416L113.263 69.9872C113.371 70.1556 113.525 70.292 113.725 70.3938C113.925 70.4956 114.142 70.5465 114.374 70.5465C114.59 70.5465 114.776 70.5059 114.933 70.4235C115.089 70.3417 115.211 70.2259 115.298 70.0763C115.385 69.9266 115.427 69.749 115.427 69.5461C115.427 69.3425 115.384 69.1685 115.294 69.0249C115.205 68.8801 115.078 68.7674 114.913 68.685C114.748 68.6032 114.547 68.562 114.31 68.562C114.213 68.562 114.109 68.5711 114.002 68.588C113.893 68.6044 113.8 68.6268 113.725 68.6553L114.212 67.9936C114.346 67.9488 114.48 67.9124 114.612 67.8833C114.744 67.8548 114.867 67.8415 114.981 67.8415C115.272 67.8415 115.536 67.9136 115.771 68.0572C116.006 68.2008 116.192 68.4044 116.33 68.6674C116.468 68.931 116.537 69.2425 116.537 69.6054C116.537 69.9951 116.446 70.3386 116.265 70.6349C116.084 70.9319 115.834 71.1652 115.515 71.3342C115.197 71.5051 114.821 71.5887 114.389 71.5887ZM113.725 68.6553V67.9851L115.184 66.2121L116.456 66.1958L114.94 68.01L113.725 68.6553ZM112.85 66.5345V65.5334H116.457L116.456 66.1958L115.549 66.5351L112.85 66.5345Z" fill="#005F71"/>
</g>
<defs>
<clipPath id="clip0_9108_15348">
<rect width="58" height="10" fill="white" transform="translate(60 63)"/>
</clipPath>
</defs>
</svg>
