<svg width="57" height="30" viewBox="0 0 57 30" fill="none" xmlns="http://www.w3.org/2000/svg">
<g style="mix-blend-mode:multiply">
<g style="mix-blend-mode:multiply">
<path d="M19.1196 27.1298C21.7842 27.1298 23.9442 24.9697 23.9442 22.3051C23.9442 19.6405 21.7842 17.4805 19.1196 17.4805C16.455 17.4805 14.2949 19.6405 14.2949 22.3051C14.2949 24.9697 16.455 27.1298 19.1196 27.1298Z" fill="#50C9E0"/>
</g>
<g style="mix-blend-mode:multiply">
<path d="M41.7434 27.1298C44.4079 27.1298 46.568 24.9697 46.568 22.3051C46.568 19.6405 44.4079 17.4805 41.7434 17.4805C39.0788 17.4805 36.9187 19.6405 36.9187 22.3051C36.9187 24.9697 39.0788 27.1298 41.7434 27.1298Z" fill="#50C9E0"/>
</g>
<g style="mix-blend-mode:multiply">
<path d="M39.9122 0H12.0949C11.3844 0 10.8083 0.57602 10.8083 1.28658V18.5368C10.8083 19.2473 11.3844 19.8234 12.0949 19.8234H39.9122C40.6227 19.8234 41.1988 19.2473 41.1988 18.5368V1.28658C41.1988 0.57602 40.6227 0 39.9122 0Z" fill="#D5E3EA"/>
</g>
<g style="mix-blend-mode:multiply">
<path d="M46.2102 8.57324H48.0896L54.9626 17.3257H46.2102V8.57324Z" fill="#50C9E0"/>
</g>
</g>
<path d="M44.0937 2.31934V17.4673C41.4294 17.4673 39.269 19.6277 39.269 22.292H26.2979C26.2979 19.6244 24.1408 17.4629 21.4787 17.4629C18.8167 17.4629 16.6596 19.6244 16.6596 22.292H13.7505V2.31934H44.0926H44.0937Z" stroke="#005F71" stroke-width="2" stroke-linecap="round" stroke-linejoin="round"/>
<path d="M23.317 26.7638C25.7788 25.7441 26.9478 22.9218 25.9281 20.4601C24.9084 17.9983 22.0861 16.8293 19.6244 17.849C17.1626 18.8687 15.9936 21.691 17.0133 24.1527C18.033 26.6145 20.8553 27.7835 23.317 26.7638Z" stroke="#005F71" stroke-width="2" stroke-linecap="round" stroke-linejoin="round"/>
<path d="M48.9359 22.3051C48.9359 24.9705 46.7755 27.1298 44.1113 27.1298C41.447 27.1298 39.2866 24.9705 39.2866 22.3051C39.2866 19.6398 41.447 17.4805 44.1113 17.4805C46.7755 17.4805 48.9359 19.6398 48.9359 22.3051Z" stroke="#005F71" stroke-width="2" stroke-linecap="round" stroke-linejoin="round"/>
<path d="M55.9242 15.3785V22.2922H48.9084C48.9084 19.6335 46.7535 17.4797 44.0947 17.4797V8.46484H50.6352L55.9253 15.3785H55.9242Z" stroke="#005F71" stroke-width="2" stroke-linecap="round" stroke-linejoin="round"/>
<path d="M47.9348 8.46484V15.3785H55.9243" stroke="#005F71" stroke-width="2" stroke-linecap="round" stroke-linejoin="round"/>
<path d="M1 28.8779H56" stroke="#C6D4D9" stroke-linecap="round" stroke-linejoin="round"/>
<path d="M13.7516 6.39062H1" stroke="#005F71" stroke-width="2" stroke-linecap="round" stroke-linejoin="round"/>
<path d="M13.7516 12.3057H4.72144" stroke="#005F71" stroke-width="2" stroke-linecap="round" stroke-linejoin="round"/>
<path d="M13.7516 18.2979H8.49219" stroke="#005F71" stroke-width="2" stroke-linecap="round" stroke-linejoin="round"/>
<path d="M22.5528 9V5.455H23.4478V9H22.5528ZM23.2628 7.675V6.92H25.0178V7.675H23.2628ZM23.2628 6.21V5.455H25.0978V6.21H23.2628ZM26.2706 7.565V6.925H26.9456C27.0923 6.925 27.2039 6.89 27.2806 6.82C27.3606 6.74667 27.4006 6.64833 27.4006 6.525C27.4006 6.405 27.3606 6.30833 27.2806 6.235C27.2039 6.15833 27.0923 6.12 26.9456 6.12H26.2706V5.455H27.0706C27.3106 5.455 27.5206 5.5 27.7006 5.59C27.8839 5.68 28.0273 5.80333 28.1306 5.96C28.2339 6.11667 28.2856 6.3 28.2856 6.51C28.2856 6.72 28.2323 6.905 28.1256 7.065C28.0223 7.22167 27.8773 7.345 27.6906 7.435C27.5039 7.52167 27.2856 7.565 27.0356 7.565H26.2706ZM25.5606 9V5.455H26.4556V9H25.5606ZM27.4806 9L26.4506 7.48L27.2556 7.285L28.5156 9H27.4806ZM28.8077 9V5.455H29.7027V9H28.8077ZM29.5177 9V8.245H31.4377V9H29.5177ZM29.5177 7.56V6.825H31.2577V7.56H29.5177ZM29.5177 6.21V5.455H31.4077V6.21H29.5177ZM31.9424 9V5.455H32.8374V9H31.9424ZM32.6524 9V8.245H34.5724V9H32.6524ZM32.6524 7.56V6.825H34.3924V7.56H32.6524ZM32.6524 6.21V5.455H34.5424V6.21H32.6524ZM17.1153 14V13.23H17.9653C18.1653 13.23 18.3386 13.1917 18.4853 13.115C18.6353 13.0383 18.7503 12.925 18.8303 12.775C18.9103 12.6217 18.9503 12.4367 18.9503 12.22C18.9503 12.0067 18.9086 11.8267 18.8253 11.68C18.7453 11.53 18.632 11.4167 18.4853 11.34C18.3386 11.2633 18.1653 11.225 17.9653 11.225H17.0753V10.455H17.9703C18.2436 10.455 18.4953 10.4983 18.7253 10.585C18.9553 10.6683 19.1553 10.7883 19.3253 10.945C19.4953 11.1017 19.627 11.2883 19.7203 11.505C19.817 11.7217 19.8653 11.9617 19.8653 12.225C19.8653 12.4917 19.817 12.7333 19.7203 12.95C19.627 13.1667 19.4953 13.3533 19.3253 13.51C19.1553 13.6667 18.9553 13.7883 18.7253 13.875C18.4986 13.9583 18.2503 14 17.9803 14H17.1153ZM16.5103 14V10.455H17.4053V14H16.5103ZM20.314 14V10.455H21.209V14H20.314ZM21.024 14V13.245H22.944V14H21.024ZM21.024 12.56V11.825H22.764V12.56H21.024ZM21.024 11.21V10.455H22.914V11.21H21.024ZM23.4488 14V10.455H24.3438V14H23.4488ZM24.1588 14V13.23H25.8688V14H24.1588ZM26.2857 14V10.455H27.1807V14H26.2857ZM28.8841 14L27.5491 10.455H28.5041L29.5041 13.32H29.0941L30.1091 10.455H31.0441L29.6941 14H28.8841ZM31.4175 14V10.455H32.3125V14H31.4175ZM32.1275 14V13.245H34.0475V14H32.1275ZM32.1275 12.56V11.825H33.8675V12.56H32.1275ZM32.1275 11.21V10.455H34.0175V11.21H32.1275ZM35.2623 12.565V11.925H35.9373C36.084 11.925 36.1956 11.89 36.2723 11.82C36.3523 11.7467 36.3923 11.6483 36.3923 11.525C36.3923 11.405 36.3523 11.3083 36.2723 11.235C36.1956 11.1583 36.084 11.12 35.9373 11.12H35.2623V10.455H36.0623C36.3023 10.455 36.5123 10.5 36.6923 10.59C36.8756 10.68 37.019 10.8033 37.1223 10.96C37.2256 11.1167 37.2773 11.3 37.2773 11.51C37.2773 11.72 37.224 11.905 37.1173 12.065C37.014 12.2217 36.869 12.345 36.6823 12.435C36.4956 12.5217 36.2773 12.565 36.0273 12.565H35.2623ZM34.5523 14V10.455H35.4473V14H34.5523ZM36.4723 14L35.4423 12.48L36.2473 12.285L37.5073 14H36.4723ZM38.733 12.73L37.378 10.455H38.403L39.438 12.3H38.718L39.753 10.455H40.758L39.393 12.73H38.733ZM38.628 14V12.365H39.523V14H38.628Z" fill="#005F71"/>
</svg>
